      <svg
        version="1.1"
        viewBox="0 0 800 800"
        width="40"
        height="40"
        xmlns="http://www.w3.org/2000/svg"
      >
        <path
          transform="translate(63,26)"
          d="m0 0h666l12 2 9 5 3 2v2l4 2 6 9 3 8v683l-4 10-7 9-8 6-8 4-8 1h-671l-11-2-11-7-8-9-4-8-1-6v-679l2-9 8-11 7-6 7-4z"
          fill="#004C82"
        />
        <path
          transform="translate(226,166)"
          d="m0 0h199l27 3 5 2 14 3 10 3 26 11 8 5 8 4 12 9 14 11v2l3 1 5 5 9 10 9 12 8 13 9 17 4 9 2 7 2 5 2 8 5 23 1 14v30l-1 14-5 21-3 12-2 3-2 7-8 16-7 13-8 11-8 10-11 12-12 11-11 8-8 6-6 3-15 8-18 7-10 3-15 4-36 4-57 2-5-3 4-6 19-19h2l1-3 6-5 5-5 4-5 8-7 7-7 8-3 18-2 17-5 16-6 9-5 11-7 11-9 12-13 7-10 8-13 8-19 3-11 3-14v-31l-4-19-7-19-9-16-8-11-8-10-8-7-12-9-17-10-14-5-19-5-17-2-17-1h-86l-48 1-6 1v245h2l11-11 5-4 3-4h2l1-3h2l2-4 7-7h2l2-4 5-4 7-8 6-6h2l2-4h2v-2l5-5h2l1-3 5-5 8-7 2-3h2l2-4h2l1-3h2l2-4h2l1-3 4-4h2l2-4 8-7 7-8-1-5-1-3-4-2-47-44-8-8-3-2v-2l-4-2-5-5v-5l4-3h78l10 9 10 10v2l4 2 3 3v2h2l7 8 19 19 7 8 15 15 4 5-1 4-6 7-8 7-10 11-8 7-52 52h-2l-1 3h-2l-2 4-18 18h-2l-2 4h-2v2l-5 5h-2l-2 4-3 3h-2l-2 4h-2l-1 3-4 4h-2l-2 4h-2l-1 3-6 5-86 86h-2l-2 4-8 7-2 3h-2l-2 4h-2l-1 3h-2l-2 4-7 6-3-1v-454l2-2z"
          fill="#FCFCFD"
        />
      </svg>
